<mxfile host="Electron" agent="Mozilla/5.0 (Windows NT 10.0; Win64; x64) AppleWebKit/537.36 (KHTML, like Gecko) draw.io/24.7.17 Chrome/128.0.6613.36 Electron/32.0.1 Safari/537.36" version="24.7.17">
  <diagram name="Page-1" id="BrCS6HJUZECceRCeI2QQ">
    <mxGraphModel dx="1793" dy="1045" grid="1" gridSize="10" guides="1" tooltips="1" connect="1" arrows="1" fold="1" page="1" pageScale="1" pageWidth="827" pageHeight="1169" math="0" shadow="0">
      <root>
        <mxCell id="0" />
        <mxCell id="1" parent="0" />
        <mxCell id="zJHnWX_HGWJEgs-mzoQP-1" value="" style="rounded=0;whiteSpace=wrap;" parent="1" vertex="1">
          <mxGeometry x="400" y="840" width="600" height="60" as="geometry" />
        </mxCell>
        <mxCell id="zJHnWX_HGWJEgs-mzoQP-2" value="PaymentID" style="rounded=0;whiteSpace=wrap;fontStyle=4" parent="1" vertex="1">
          <mxGeometry x="400" y="840" width="120" height="60" as="geometry" />
        </mxCell>
        <mxCell id="zJHnWX_HGWJEgs-mzoQP-3" value="OrderID" style="rounded=0;whiteSpace=wrap;" parent="1" vertex="1">
          <mxGeometry x="520" y="840" width="120" height="60" as="geometry" />
        </mxCell>
        <mxCell id="zJHnWX_HGWJEgs-mzoQP-4" value="PaymentDate" style="rounded=0;whiteSpace=wrap;" parent="1" vertex="1">
          <mxGeometry x="640" y="840" width="120" height="60" as="geometry" />
        </mxCell>
        <mxCell id="zJHnWX_HGWJEgs-mzoQP-5" value="" style="rounded=0;whiteSpace=wrap;" parent="1" vertex="1">
          <mxGeometry x="400" y="700" width="1080" height="60" as="geometry" />
        </mxCell>
        <mxCell id="zJHnWX_HGWJEgs-mzoQP-6" value="CustomerID" style="rounded=0;whiteSpace=wrap;fontStyle=4" parent="1" vertex="1">
          <mxGeometry x="400" y="700" width="120" height="60" as="geometry" />
        </mxCell>
        <mxCell id="zJHnWX_HGWJEgs-mzoQP-7" value="FirstName" style="rounded=0;whiteSpace=wrap;" parent="1" vertex="1">
          <mxGeometry x="520" y="700" width="120" height="60" as="geometry" />
        </mxCell>
        <mxCell id="zJHnWX_HGWJEgs-mzoQP-8" value="LastName" style="rounded=0;whiteSpace=wrap;" parent="1" vertex="1">
          <mxGeometry x="640" y="700" width="120" height="60" as="geometry" />
        </mxCell>
        <mxCell id="zJHnWX_HGWJEgs-mzoQP-9" value="Email" style="rounded=0;whiteSpace=wrap;" parent="1" vertex="1">
          <mxGeometry x="760" y="700" width="120" height="60" as="geometry" />
        </mxCell>
        <mxCell id="zJHnWX_HGWJEgs-mzoQP-10" value="Phone" style="rounded=0;whiteSpace=wrap;" parent="1" vertex="1">
          <mxGeometry x="880" y="700" width="120" height="60" as="geometry" />
        </mxCell>
        <mxCell id="zJHnWX_HGWJEgs-mzoQP-12" value="" style="rounded=0;whiteSpace=wrap;" parent="1" vertex="1">
          <mxGeometry x="400" y="540" width="720" height="60" as="geometry" />
        </mxCell>
        <mxCell id="OCCXAfOMI_q4GDs9s6VF-13" style="edgeStyle=orthogonalEdgeStyle;rounded=0;orthogonalLoop=1;jettySize=auto;html=1;exitX=0.5;exitY=0;exitDx=0;exitDy=0;entryX=0;entryY=0.75;entryDx=0;entryDy=0;" parent="1" source="zJHnWX_HGWJEgs-mzoQP-3" target="zJHnWX_HGWJEgs-mzoQP-13" edge="1">
          <mxGeometry relative="1" as="geometry">
            <Array as="points">
              <mxPoint x="580" y="800" />
              <mxPoint x="290" y="800" />
              <mxPoint x="290" y="585" />
            </Array>
          </mxGeometry>
        </mxCell>
        <mxCell id="zJHnWX_HGWJEgs-mzoQP-13" value="OrderID" style="rounded=0;whiteSpace=wrap;fontStyle=4" parent="1" vertex="1">
          <mxGeometry x="400" y="540" width="120" height="60" as="geometry" />
        </mxCell>
        <mxCell id="zJHnWX_HGWJEgs-mzoQP-14" value="CustomerID" style="rounded=0;whiteSpace=wrap;" parent="1" vertex="1">
          <mxGeometry x="520" y="540" width="120" height="60" as="geometry" />
        </mxCell>
        <mxCell id="zJHnWX_HGWJEgs-mzoQP-15" value="OrderDate" style="rounded=0;whiteSpace=wrap;" parent="1" vertex="1">
          <mxGeometry x="640" y="540" width="120" height="60" as="geometry" />
        </mxCell>
        <mxCell id="zJHnWX_HGWJEgs-mzoQP-16" value="ShipDate" style="rounded=0;whiteSpace=wrap;" parent="1" vertex="1">
          <mxGeometry x="760" y="540" width="120" height="60" as="geometry" />
        </mxCell>
        <mxCell id="zJHnWX_HGWJEgs-mzoQP-17" value="ShippingAddress" style="rounded=0;whiteSpace=wrap;" parent="1" vertex="1">
          <mxGeometry x="880" y="540" width="120" height="60" as="geometry" />
        </mxCell>
        <mxCell id="zJHnWX_HGWJEgs-mzoQP-18" value="TotalAmount" style="rounded=0;whiteSpace=wrap;" parent="1" vertex="1">
          <mxGeometry x="1000" y="540" width="120" height="60" as="geometry" />
        </mxCell>
        <mxCell id="zJHnWX_HGWJEgs-mzoQP-22" value="RegistrationDate" style="rounded=0;whiteSpace=wrap;" parent="1" vertex="1">
          <mxGeometry x="1000" y="700" width="120" height="60" as="geometry" />
        </mxCell>
        <mxCell id="zJHnWX_HGWJEgs-mzoQP-23" value="" style="rounded=0;whiteSpace=wrap;" parent="1" vertex="1">
          <mxGeometry x="400" y="410" width="720" height="60" as="geometry" />
        </mxCell>
        <mxCell id="zJHnWX_HGWJEgs-mzoQP-24" value="OrderItemID" style="rounded=0;strokeColor=default;fillColor=default;fontColor=default;whiteSpace=wrap;fontStyle=4" parent="1" vertex="1">
          <mxGeometry x="400" y="410" width="120" height="60" as="geometry" />
        </mxCell>
        <mxCell id="zJHnWX_HGWJEgs-mzoQP-25" value="OrderID" style="rounded=0;whiteSpace=wrap;" parent="1" vertex="1">
          <mxGeometry x="520" y="410" width="120" height="60" as="geometry" />
        </mxCell>
        <mxCell id="zJHnWX_HGWJEgs-mzoQP-26" value="Quantity" style="rounded=0;whiteSpace=wrap;" parent="1" vertex="1">
          <mxGeometry x="640" y="410" width="120" height="60" as="geometry" />
        </mxCell>
        <mxCell id="zJHnWX_HGWJEgs-mzoQP-27" value="UnitPrice" style="rounded=0;whiteSpace=wrap;" parent="1" vertex="1">
          <mxGeometry x="760" y="410" width="120" height="60" as="geometry" />
        </mxCell>
        <mxCell id="zJHnWX_HGWJEgs-mzoQP-28" value="TotalPrice" style="rounded=0;whiteSpace=wrap;" parent="1" vertex="1">
          <mxGeometry x="880" y="410" width="120" height="60" as="geometry" />
        </mxCell>
        <mxCell id="zJHnWX_HGWJEgs-mzoQP-30" value="ProductID" style="rounded=0;whiteSpace=wrap;" parent="1" vertex="1">
          <mxGeometry x="1000" y="410" width="120" height="60" as="geometry" />
        </mxCell>
        <mxCell id="zJHnWX_HGWJEgs-mzoQP-41" value="" style="rounded=0;whiteSpace=wrap;" parent="1" vertex="1">
          <mxGeometry x="400" y="990" width="710" height="60" as="geometry" />
        </mxCell>
        <mxCell id="OCCXAfOMI_q4GDs9s6VF-4" style="edgeStyle=orthogonalEdgeStyle;rounded=0;orthogonalLoop=1;jettySize=auto;html=1;exitX=0.5;exitY=0;exitDx=0;exitDy=0;entryX=0.25;entryY=1;entryDx=0;entryDy=0;" parent="1" source="-V-hL_aX8nEg9ctuCyiI-3" target="zJHnWX_HGWJEgs-mzoQP-42" edge="1">
          <mxGeometry relative="1" as="geometry">
            <Array as="points">
              <mxPoint x="580" y="1750" />
              <mxPoint x="1670" y="1750" />
              <mxPoint x="1670" y="1130" />
              <mxPoint x="430" y="1130" />
            </Array>
          </mxGeometry>
        </mxCell>
        <mxCell id="OCCXAfOMI_q4GDs9s6VF-5" style="edgeStyle=orthogonalEdgeStyle;rounded=0;orthogonalLoop=1;jettySize=auto;html=1;exitX=0.5;exitY=0;exitDx=0;exitDy=0;entryX=0.5;entryY=1;entryDx=0;entryDy=0;" parent="1" source="-V-hL_aX8nEg9ctuCyiI-37" target="zJHnWX_HGWJEgs-mzoQP-42" edge="1">
          <mxGeometry relative="1" as="geometry">
            <Array as="points">
              <mxPoint x="700" y="2100" />
              <mxPoint x="1730" y="2100" />
              <mxPoint x="1730" y="1110" />
              <mxPoint x="460" y="1110" />
            </Array>
          </mxGeometry>
        </mxCell>
        <mxCell id="OCCXAfOMI_q4GDs9s6VF-6" style="edgeStyle=orthogonalEdgeStyle;rounded=0;orthogonalLoop=1;jettySize=auto;html=1;exitX=1;exitY=0.5;exitDx=0;exitDy=0;entryX=0.75;entryY=1;entryDx=0;entryDy=0;" parent="1" source="zJHnWX_HGWJEgs-mzoQP-30" target="zJHnWX_HGWJEgs-mzoQP-42" edge="1">
          <mxGeometry relative="1" as="geometry">
            <Array as="points">
              <mxPoint x="2000" y="440" />
              <mxPoint x="2000" y="1090" />
              <mxPoint x="490" y="1090" />
            </Array>
          </mxGeometry>
        </mxCell>
        <mxCell id="zJHnWX_HGWJEgs-mzoQP-42" value="ProductID" style="rounded=0;whiteSpace=wrap;fontStyle=4" parent="1" vertex="1">
          <mxGeometry x="400" y="990" width="120" height="60" as="geometry" />
        </mxCell>
        <mxCell id="zJHnWX_HGWJEgs-mzoQP-43" value="ProductName" style="rounded=0;whiteSpace=wrap;" parent="1" vertex="1">
          <mxGeometry x="520" y="990" width="120" height="60" as="geometry" />
        </mxCell>
        <mxCell id="zJHnWX_HGWJEgs-mzoQP-44" value="SupplierID" style="rounded=0;whiteSpace=wrap;" parent="1" vertex="1">
          <mxGeometry x="640" y="990" width="120" height="60" as="geometry" />
        </mxCell>
        <mxCell id="zJHnWX_HGWJEgs-mzoQP-45" value="PaymentMethod" style="rounded=0;whiteSpace=wrap;" parent="1" vertex="1">
          <mxGeometry x="760" y="840" width="120" height="60" as="geometry" />
        </mxCell>
        <mxCell id="zJHnWX_HGWJEgs-mzoQP-46" value="Amount" style="rounded=0;whiteSpace=wrap;" parent="1" vertex="1">
          <mxGeometry x="880" y="840" width="120" height="60" as="geometry" />
        </mxCell>
        <mxCell id="zJHnWX_HGWJEgs-mzoQP-50" value="Price" style="rounded=0;whiteSpace=wrap;" parent="1" vertex="1">
          <mxGeometry x="760" y="990" width="120" height="60" as="geometry" />
        </mxCell>
        <mxCell id="zJHnWX_HGWJEgs-mzoQP-51" value="StockQuantity" style="rounded=0;whiteSpace=wrap;" parent="1" vertex="1">
          <mxGeometry x="880" y="990" width="120" height="60" as="geometry" />
        </mxCell>
        <mxCell id="zJHnWX_HGWJEgs-mzoQP-52" value="Description" style="rounded=0;whiteSpace=wrap;" parent="1" vertex="1">
          <mxGeometry x="990" y="990" width="120" height="60" as="geometry" />
        </mxCell>
        <mxCell id="zJHnWX_HGWJEgs-mzoQP-57" value="" style="rounded=0;whiteSpace=wrap;" parent="1" vertex="1">
          <mxGeometry x="400" y="1210" width="1190" height="60" as="geometry" />
        </mxCell>
        <mxCell id="zJHnWX_HGWJEgs-mzoQP-58" value="SupplierID" style="rounded=0;whiteSpace=wrap;fontStyle=4" parent="1" vertex="1">
          <mxGeometry x="400" y="1210" width="120" height="60" as="geometry" />
        </mxCell>
        <mxCell id="zJHnWX_HGWJEgs-mzoQP-59" value="SupplierName" style="rounded=0;whiteSpace=wrap;" parent="1" vertex="1">
          <mxGeometry x="520" y="1210" width="120" height="60" as="geometry" />
        </mxCell>
        <mxCell id="zJHnWX_HGWJEgs-mzoQP-60" value="ContactName" style="rounded=0;whiteSpace=wrap;" parent="1" vertex="1">
          <mxGeometry x="640" y="1210" width="120" height="60" as="geometry" />
        </mxCell>
        <mxCell id="zJHnWX_HGWJEgs-mzoQP-61" value="ContactEmail" style="rounded=0;whiteSpace=wrap;" parent="1" vertex="1">
          <mxGeometry x="760" y="1210" width="120" height="60" as="geometry" />
        </mxCell>
        <mxCell id="zJHnWX_HGWJEgs-mzoQP-62" value="Phone" style="rounded=0;whiteSpace=wrap;" parent="1" vertex="1">
          <mxGeometry x="880" y="1210" width="120" height="60" as="geometry" />
        </mxCell>
        <mxCell id="zJHnWX_HGWJEgs-mzoQP-63" value="Address" style="rounded=0;whiteSpace=wrap;" parent="1" vertex="1">
          <mxGeometry x="990" y="1210" width="120" height="60" as="geometry" />
        </mxCell>
        <mxCell id="zJHnWX_HGWJEgs-mzoQP-64" value="City" style="rounded=0;whiteSpace=wrap;" parent="1" vertex="1">
          <mxGeometry x="1110" y="1210" width="120" height="60" as="geometry" />
        </mxCell>
        <mxCell id="zJHnWX_HGWJEgs-mzoQP-65" value="State" style="rounded=0;whiteSpace=wrap;strokeColor=default;fillColor=default;" parent="1" vertex="1">
          <mxGeometry x="1230" y="1210" width="120" height="60" as="geometry" />
        </mxCell>
        <mxCell id="zJHnWX_HGWJEgs-mzoQP-66" value="ZipCode" style="rounded=0;whiteSpace=wrap;strokeColor=default;fillColor=default;" parent="1" vertex="1">
          <mxGeometry x="1350" y="1210" width="120" height="60" as="geometry" />
        </mxCell>
        <mxCell id="eU1-j15INiOvJGIhP0MD-1" value="Order Item" style="text;align=center;verticalAlign=middle;whiteSpace=wrap;rounded=0;" parent="1" vertex="1">
          <mxGeometry x="400" y="380" width="140" height="30" as="geometry" />
        </mxCell>
        <mxCell id="OCCXAfOMI_q4GDs9s6VF-8" style="edgeStyle=orthogonalEdgeStyle;rounded=0;orthogonalLoop=1;jettySize=auto;html=1;entryX=0.75;entryY=1;entryDx=0;entryDy=0;" parent="1" source="zJHnWX_HGWJEgs-mzoQP-25" target="eU1-j15INiOvJGIhP0MD-2" edge="1">
          <mxGeometry relative="1" as="geometry">
            <Array as="points">
              <mxPoint x="580" y="510" />
              <mxPoint x="499" y="510" />
            </Array>
          </mxGeometry>
        </mxCell>
        <mxCell id="eU1-j15INiOvJGIhP0MD-2" value="Order" style="text;align=center;verticalAlign=middle;whiteSpace=wrap;rounded=0;" parent="1" vertex="1">
          <mxGeometry x="394" y="510" width="140" height="30" as="geometry" />
        </mxCell>
        <mxCell id="OCCXAfOMI_q4GDs9s6VF-9" style="edgeStyle=orthogonalEdgeStyle;rounded=0;orthogonalLoop=1;jettySize=auto;html=1;exitX=0.5;exitY=1;exitDx=0;exitDy=0;entryX=0.75;entryY=1;entryDx=0;entryDy=0;" parent="1" source="zJHnWX_HGWJEgs-mzoQP-14" target="eU1-j15INiOvJGIhP0MD-3" edge="1">
          <mxGeometry relative="1" as="geometry">
            <Array as="points">
              <mxPoint x="580" y="650" />
              <mxPoint x="499" y="650" />
            </Array>
          </mxGeometry>
        </mxCell>
        <mxCell id="eU1-j15INiOvJGIhP0MD-3" value="Customer" style="text;align=center;verticalAlign=middle;whiteSpace=wrap;rounded=0;" parent="1" vertex="1">
          <mxGeometry x="394" y="670" width="140" height="30" as="geometry" />
        </mxCell>
        <mxCell id="eU1-j15INiOvJGIhP0MD-4" value="Payment" style="text;align=center;verticalAlign=middle;whiteSpace=wrap;rounded=0;" parent="1" vertex="1">
          <mxGeometry x="400" y="810" width="140" height="30" as="geometry" />
        </mxCell>
        <mxCell id="eU1-j15INiOvJGIhP0MD-5" value="Product" style="text;align=center;verticalAlign=middle;whiteSpace=wrap;rounded=0;" parent="1" vertex="1">
          <mxGeometry x="400" y="960" width="140" height="30" as="geometry" />
        </mxCell>
        <mxCell id="OCCXAfOMI_q4GDs9s6VF-7" style="edgeStyle=orthogonalEdgeStyle;rounded=0;orthogonalLoop=1;jettySize=auto;html=1;exitX=0.5;exitY=0;exitDx=0;exitDy=0;entryX=0;entryY=0.5;entryDx=0;entryDy=0;" parent="1" source="zJHnWX_HGWJEgs-mzoQP-44" target="zJHnWX_HGWJEgs-mzoQP-58" edge="1">
          <mxGeometry relative="1" as="geometry">
            <Array as="points">
              <mxPoint x="700" y="960" />
              <mxPoint x="370" y="960" />
              <mxPoint x="370" y="1240" />
            </Array>
          </mxGeometry>
        </mxCell>
        <mxCell id="eU1-j15INiOvJGIhP0MD-6" value="Supplier" style="text;align=center;verticalAlign=middle;whiteSpace=wrap;rounded=0;" parent="1" vertex="1">
          <mxGeometry x="396" y="1180" width="140" height="30" as="geometry" />
        </mxCell>
        <mxCell id="kXorW0ai4-YD0W7__TPv-1" value="ShippingAddressID" style="rounded=0;whiteSpace=wrap;" parent="1" vertex="1">
          <mxGeometry x="1120.5" y="700" width="120" height="60" as="geometry" />
        </mxCell>
        <mxCell id="kXorW0ai4-YD0W7__TPv-2" value="BillingAddressID" style="rounded=0;whiteSpace=wrap;" parent="1" vertex="1">
          <mxGeometry x="1241" y="700" width="120" height="60" as="geometry" />
        </mxCell>
        <mxCell id="kXorW0ai4-YD0W7__TPv-3" value="" style="rounded=0;whiteSpace=wrap;" parent="1" vertex="1">
          <mxGeometry x="400" y="1360" width="830" height="60" as="geometry" />
        </mxCell>
        <mxCell id="kXorW0ai4-YD0W7__TPv-4" value="AddressID" style="rounded=0;whiteSpace=wrap;fontStyle=4" parent="1" vertex="1">
          <mxGeometry x="400" y="1360" width="120" height="60" as="geometry" />
        </mxCell>
        <mxCell id="OCCXAfOMI_q4GDs9s6VF-12" style="edgeStyle=orthogonalEdgeStyle;rounded=0;orthogonalLoop=1;jettySize=auto;html=1;exitX=0.5;exitY=0;exitDx=0;exitDy=0;entryX=0;entryY=0.75;entryDx=0;entryDy=0;" parent="1" source="kXorW0ai4-YD0W7__TPv-5" target="zJHnWX_HGWJEgs-mzoQP-6" edge="1">
          <mxGeometry relative="1" as="geometry">
            <mxPoint x="390" y="770" as="targetPoint" />
            <Array as="points">
              <mxPoint x="580" y="1320" />
              <mxPoint x="350" y="1320" />
              <mxPoint x="350" y="745" />
            </Array>
          </mxGeometry>
        </mxCell>
        <mxCell id="kXorW0ai4-YD0W7__TPv-5" value="CustomerID" style="rounded=0;whiteSpace=wrap;" parent="1" vertex="1">
          <mxGeometry x="520" y="1360" width="120" height="60" as="geometry" />
        </mxCell>
        <mxCell id="kXorW0ai4-YD0W7__TPv-6" value="Street" style="rounded=0;whiteSpace=wrap;" parent="1" vertex="1">
          <mxGeometry x="640" y="1360" width="120" height="60" as="geometry" />
        </mxCell>
        <mxCell id="kXorW0ai4-YD0W7__TPv-7" value="City" style="rounded=0;whiteSpace=wrap;" parent="1" vertex="1">
          <mxGeometry x="760" y="1360" width="120" height="60" as="geometry" />
        </mxCell>
        <mxCell id="kXorW0ai4-YD0W7__TPv-8" value="State" style="rounded=0;whiteSpace=wrap;" parent="1" vertex="1">
          <mxGeometry x="880" y="1360" width="120" height="60" as="geometry" />
        </mxCell>
        <mxCell id="kXorW0ai4-YD0W7__TPv-9" value="Address" style="rounded=0;whiteSpace=wrap;" parent="1" vertex="1">
          <mxGeometry x="990" y="1360" width="120" height="60" as="geometry" />
        </mxCell>
        <mxCell id="kXorW0ai4-YD0W7__TPv-10" value="AddressType" style="rounded=0;whiteSpace=wrap;" parent="1" vertex="1">
          <mxGeometry x="1110" y="1360" width="120" height="60" as="geometry" />
        </mxCell>
        <mxCell id="kXorW0ai4-YD0W7__TPv-13" value="Address" style="text;align=center;verticalAlign=middle;whiteSpace=wrap;rounded=0;" parent="1" vertex="1">
          <mxGeometry x="400" y="1330" width="140" height="30" as="geometry" />
        </mxCell>
        <mxCell id="kXorW0ai4-YD0W7__TPv-20" value="" style="rounded=0;whiteSpace=wrap;" parent="1" vertex="1">
          <mxGeometry x="405" y="1570" width="945" height="60" as="geometry" />
        </mxCell>
        <mxCell id="kXorW0ai4-YD0W7__TPv-21" value="ShippingID" style="rounded=0;whiteSpace=wrap;fontStyle=4" parent="1" vertex="1">
          <mxGeometry x="405" y="1570" width="120" height="60" as="geometry" />
        </mxCell>
        <mxCell id="OCCXAfOMI_q4GDs9s6VF-14" style="edgeStyle=orthogonalEdgeStyle;rounded=0;orthogonalLoop=1;jettySize=auto;html=1;exitX=0.5;exitY=0;exitDx=0;exitDy=0;entryX=0;entryY=0.5;entryDx=0;entryDy=0;" parent="1" source="kXorW0ai4-YD0W7__TPv-22" target="zJHnWX_HGWJEgs-mzoQP-13" edge="1">
          <mxGeometry relative="1" as="geometry">
            <Array as="points">
              <mxPoint x="585" y="1490" />
              <mxPoint x="270" y="1490" />
              <mxPoint x="270" y="570" />
            </Array>
          </mxGeometry>
        </mxCell>
        <mxCell id="kXorW0ai4-YD0W7__TPv-22" value="OrderID" style="rounded=0;whiteSpace=wrap;" parent="1" vertex="1">
          <mxGeometry x="525" y="1570" width="120" height="60" as="geometry" />
        </mxCell>
        <mxCell id="kXorW0ai4-YD0W7__TPv-23" value="Carrier" style="rounded=0;whiteSpace=wrap;" parent="1" vertex="1">
          <mxGeometry x="645" y="1570" width="120" height="60" as="geometry" />
        </mxCell>
        <mxCell id="kXorW0ai4-YD0W7__TPv-24" value="TrackingNumber" style="rounded=0;whiteSpace=wrap;" parent="1" vertex="1">
          <mxGeometry x="765" y="1570" width="120" height="60" as="geometry" />
        </mxCell>
        <mxCell id="kXorW0ai4-YD0W7__TPv-25" value="State" style="rounded=0;whiteSpace=wrap;" parent="1" vertex="1">
          <mxGeometry x="885" y="1570" width="120" height="60" as="geometry" />
        </mxCell>
        <mxCell id="kXorW0ai4-YD0W7__TPv-26" value="ShippedDate" style="rounded=0;whiteSpace=wrap;" parent="1" vertex="1">
          <mxGeometry x="995" y="1570" width="120" height="60" as="geometry" />
        </mxCell>
        <mxCell id="kXorW0ai4-YD0W7__TPv-27" value="DeliveredDate" style="rounded=0;whiteSpace=wrap;" parent="1" vertex="1">
          <mxGeometry x="1115" y="1570" width="120" height="60" as="geometry" />
        </mxCell>
        <mxCell id="kXorW0ai4-YD0W7__TPv-28" value="Shipping" style="text;align=center;verticalAlign=middle;whiteSpace=wrap;rounded=0;" parent="1" vertex="1">
          <mxGeometry x="405" y="1540" width="140" height="30" as="geometry" />
        </mxCell>
        <mxCell id="kXorW0ai4-YD0W7__TPv-29" value="ShippingCost" style="rounded=0;whiteSpace=wrap;" parent="1" vertex="1">
          <mxGeometry x="1235" y="1570" width="120" height="60" as="geometry" />
        </mxCell>
        <mxCell id="-V-hL_aX8nEg9ctuCyiI-1" value="" style="rounded=0;whiteSpace=wrap;" parent="1" vertex="1">
          <mxGeometry x="400" y="1790" width="830" height="60" as="geometry" />
        </mxCell>
        <mxCell id="-V-hL_aX8nEg9ctuCyiI-2" value="ReviewID" style="rounded=0;whiteSpace=wrap;fontStyle=4" parent="1" vertex="1">
          <mxGeometry x="400" y="1790" width="120" height="60" as="geometry" />
        </mxCell>
        <mxCell id="-V-hL_aX8nEg9ctuCyiI-3" value="ProductID" style="rounded=0;whiteSpace=wrap;" parent="1" vertex="1">
          <mxGeometry x="520" y="1790" width="120" height="60" as="geometry" />
        </mxCell>
        <mxCell id="-V-hL_aX8nEg9ctuCyiI-4" value="CustomerID" style="rounded=0;whiteSpace=wrap;" parent="1" vertex="1">
          <mxGeometry x="640" y="1790" width="120" height="60" as="geometry" />
        </mxCell>
        <mxCell id="-V-hL_aX8nEg9ctuCyiI-5" value="TrackingNumber" style="rounded=0;whiteSpace=wrap;" parent="1" vertex="1">
          <mxGeometry x="760" y="1790" width="120" height="60" as="geometry" />
        </mxCell>
        <mxCell id="-V-hL_aX8nEg9ctuCyiI-6" value="Rating" style="rounded=0;whiteSpace=wrap;" parent="1" vertex="1">
          <mxGeometry x="880" y="1790" width="120" height="60" as="geometry" />
        </mxCell>
        <mxCell id="-V-hL_aX8nEg9ctuCyiI-7" value="ReviewText" style="rounded=0;whiteSpace=wrap;" parent="1" vertex="1">
          <mxGeometry x="990" y="1790" width="120" height="60" as="geometry" />
        </mxCell>
        <mxCell id="-V-hL_aX8nEg9ctuCyiI-8" value="ReviewDate" style="rounded=0;whiteSpace=wrap;" parent="1" vertex="1">
          <mxGeometry x="1110" y="1790" width="120" height="60" as="geometry" />
        </mxCell>
        <mxCell id="-V-hL_aX8nEg9ctuCyiI-9" value="Review" style="text;align=center;verticalAlign=middle;whiteSpace=wrap;rounded=0;" parent="1" vertex="1">
          <mxGeometry x="400" y="1760" width="140" height="30" as="geometry" />
        </mxCell>
        <mxCell id="-V-hL_aX8nEg9ctuCyiI-23" value="" style="rounded=0;whiteSpace=wrap;" parent="1" vertex="1">
          <mxGeometry x="400" y="2000" width="240" height="60" as="geometry" />
        </mxCell>
        <mxCell id="-V-hL_aX8nEg9ctuCyiI-24" value="CartID" style="rounded=0;whiteSpace=wrap;fontStyle=4" parent="1" vertex="1">
          <mxGeometry x="400" y="2000" width="120" height="60" as="geometry" />
        </mxCell>
        <mxCell id="OCCXAfOMI_q4GDs9s6VF-10" style="edgeStyle=orthogonalEdgeStyle;rounded=0;orthogonalLoop=1;jettySize=auto;html=1;exitX=0.5;exitY=0;exitDx=0;exitDy=0;entryX=0;entryY=0.25;entryDx=0;entryDy=0;" parent="1" source="-V-hL_aX8nEg9ctuCyiI-25" target="zJHnWX_HGWJEgs-mzoQP-6" edge="1">
          <mxGeometry relative="1" as="geometry">
            <mxPoint x="340" y="700" as="targetPoint" />
            <Array as="points">
              <mxPoint x="580" y="1950" />
              <mxPoint x="310" y="1950" />
              <mxPoint x="310" y="715" />
            </Array>
          </mxGeometry>
        </mxCell>
        <mxCell id="-V-hL_aX8nEg9ctuCyiI-25" value="CustomerID" style="rounded=0;whiteSpace=wrap;" parent="1" vertex="1">
          <mxGeometry x="520" y="2000" width="120" height="60" as="geometry" />
        </mxCell>
        <mxCell id="-V-hL_aX8nEg9ctuCyiI-31" value="Cart" style="text;align=center;verticalAlign=middle;whiteSpace=wrap;rounded=0;" parent="1" vertex="1">
          <mxGeometry x="400" y="1970" width="140" height="30" as="geometry" />
        </mxCell>
        <mxCell id="-V-hL_aX8nEg9ctuCyiI-33" value="" style="rounded=0;whiteSpace=wrap;" parent="1" vertex="1">
          <mxGeometry x="400" y="2150" width="480" height="60" as="geometry" />
        </mxCell>
        <mxCell id="-V-hL_aX8nEg9ctuCyiI-34" value="CartItemID" style="rounded=0;whiteSpace=wrap;fontStyle=4" parent="1" vertex="1">
          <mxGeometry x="400" y="2150" width="120" height="60" as="geometry" />
        </mxCell>
        <mxCell id="-V-hL_aX8nEg9ctuCyiI-35" value="CartID" style="rounded=0;whiteSpace=wrap;" parent="1" vertex="1">
          <mxGeometry x="520" y="2150" width="120" height="60" as="geometry" />
        </mxCell>
        <mxCell id="-V-hL_aX8nEg9ctuCyiI-36" value="CartItem" style="text;align=center;verticalAlign=middle;whiteSpace=wrap;rounded=0;" parent="1" vertex="1">
          <mxGeometry x="400" y="2120" width="140" height="30" as="geometry" />
        </mxCell>
        <mxCell id="-V-hL_aX8nEg9ctuCyiI-37" value="ProductID" style="rounded=0;whiteSpace=wrap;" parent="1" vertex="1">
          <mxGeometry x="640" y="2150" width="120" height="60" as="geometry" />
        </mxCell>
        <mxCell id="-V-hL_aX8nEg9ctuCyiI-38" value="Quantity" style="rounded=0;whiteSpace=wrap;" parent="1" vertex="1">
          <mxGeometry x="760" y="2150" width="120" height="60" as="geometry" />
        </mxCell>
        <mxCell id="-V-hL_aX8nEg9ctuCyiI-45" value="" style="endArrow=none;rounded=0;entryX=0.693;entryY=1.044;entryDx=0;entryDy=0;entryPerimeter=0;" parent="1" edge="1">
          <mxGeometry width="50" height="50" relative="1" as="geometry">
            <mxPoint x="490" y="2100" as="sourcePoint" />
            <mxPoint x="490.1600000000001" y="2060" as="targetPoint" />
          </mxGeometry>
        </mxCell>
        <mxCell id="-V-hL_aX8nEg9ctuCyiI-46" value="" style="endArrow=none;rounded=0;" parent="1" edge="1">
          <mxGeometry width="50" height="50" relative="1" as="geometry">
            <mxPoint x="490" y="2100" as="sourcePoint" />
            <mxPoint x="590" y="2100" as="targetPoint" />
          </mxGeometry>
        </mxCell>
        <mxCell id="-V-hL_aX8nEg9ctuCyiI-47" value="" style="endArrow=classic;rounded=0;entryX=0.618;entryY=-0.03;entryDx=0;entryDy=0;entryPerimeter=0;" parent="1" edge="1">
          <mxGeometry width="50" height="50" relative="1" as="geometry">
            <mxPoint x="590" y="2100" as="sourcePoint" />
            <mxPoint x="590.1599999999999" y="2148.2000000000003" as="targetPoint" />
          </mxGeometry>
        </mxCell>
        <mxCell id="LYuZhgR_EoxWv6UKxuFj-1" value="" style="rounded=0;whiteSpace=wrap;" parent="1" vertex="1">
          <mxGeometry x="390" y="2400" width="600" height="60" as="geometry" />
        </mxCell>
        <mxCell id="OCCXAfOMI_q4GDs9s6VF-1" style="edgeStyle=orthogonalEdgeStyle;rounded=0;orthogonalLoop=1;jettySize=auto;html=1;exitX=0.5;exitY=0;exitDx=0;exitDy=0;entryX=0.5;entryY=1;entryDx=0;entryDy=0;endArrow=none;endFill=0;startArrow=classic;startFill=1;" parent="1" source="LYuZhgR_EoxWv6UKxuFj-18" target="LYuZhgR_EoxWv6UKxuFj-2" edge="1">
          <mxGeometry relative="1" as="geometry" />
        </mxCell>
        <mxCell id="OCCXAfOMI_q4GDs9s6VF-2" style="edgeStyle=orthogonalEdgeStyle;rounded=0;orthogonalLoop=1;jettySize=auto;html=1;exitX=1;exitY=0.5;exitDx=0;exitDy=0;entryX=0.75;entryY=1;entryDx=0;entryDy=0;endArrow=none;endFill=0;startArrow=classic;startFill=1;" parent="1" source="deXC7BnQ1RghemhuzCMD-6" target="LYuZhgR_EoxWv6UKxuFj-2" edge="1">
          <mxGeometry relative="1" as="geometry">
            <mxPoint x="1960" y="729.9999999999998" as="sourcePoint" />
            <Array as="points">
              <mxPoint x="1980" y="730" />
              <mxPoint x="1980" y="2500" />
              <mxPoint x="480" y="2500" />
            </Array>
          </mxGeometry>
        </mxCell>
        <mxCell id="LYuZhgR_EoxWv6UKxuFj-2" value="UserID" style="rounded=0;whiteSpace=wrap;fontStyle=4" parent="1" vertex="1">
          <mxGeometry x="390" y="2400" width="120" height="60" as="geometry" />
        </mxCell>
        <mxCell id="LYuZhgR_EoxWv6UKxuFj-4" value="Users" style="text;align=center;verticalAlign=middle;whiteSpace=wrap;rounded=0;" parent="1" vertex="1">
          <mxGeometry x="390" y="2370" width="140" height="30" as="geometry" />
        </mxCell>
        <mxCell id="LYuZhgR_EoxWv6UKxuFj-6" value="UserName" style="rounded=0;whiteSpace=wrap;" parent="1" vertex="1">
          <mxGeometry x="510" y="2400" width="120" height="60" as="geometry" />
        </mxCell>
        <mxCell id="LYuZhgR_EoxWv6UKxuFj-9" value="Password" style="rounded=0;whiteSpace=wrap;" parent="1" vertex="1">
          <mxGeometry x="630" y="2400" width="120" height="60" as="geometry" />
        </mxCell>
        <mxCell id="LYuZhgR_EoxWv6UKxuFj-10" value="NIC" style="rounded=0;whiteSpace=wrap;" parent="1" vertex="1">
          <mxGeometry x="750" y="2400" width="120" height="60" as="geometry" />
        </mxCell>
        <mxCell id="LYuZhgR_EoxWv6UKxuFj-11" value="Type" style="rounded=0;whiteSpace=wrap;" parent="1" vertex="1">
          <mxGeometry x="870" y="2400" width="120" height="60" as="geometry" />
        </mxCell>
        <mxCell id="LYuZhgR_EoxWv6UKxuFj-16" value="" style="rounded=0;whiteSpace=wrap;" parent="1" vertex="1">
          <mxGeometry x="390" y="2610" width="1190" height="60" as="geometry" />
        </mxCell>
        <mxCell id="LYuZhgR_EoxWv6UKxuFj-17" value="AdminID" style="rounded=0;whiteSpace=wrap;fontStyle=4" parent="1" vertex="1">
          <mxGeometry x="390" y="2610" width="120" height="60" as="geometry" />
        </mxCell>
        <mxCell id="LYuZhgR_EoxWv6UKxuFj-18" value="UserID" style="rounded=0;whiteSpace=wrap;" parent="1" vertex="1">
          <mxGeometry x="510" y="2610" width="110" height="60" as="geometry" />
        </mxCell>
        <mxCell id="LYuZhgR_EoxWv6UKxuFj-19" value="Admin" style="text;align=center;verticalAlign=middle;whiteSpace=wrap;rounded=0;" parent="1" vertex="1">
          <mxGeometry x="390" y="2580" width="140" height="30" as="geometry" />
        </mxCell>
        <mxCell id="OCCXAfOMI_q4GDs9s6VF-11" style="edgeStyle=orthogonalEdgeStyle;rounded=0;orthogonalLoop=1;jettySize=auto;html=1;exitX=0.5;exitY=1;exitDx=0;exitDy=0;entryX=0;entryY=0.5;entryDx=0;entryDy=0;" parent="1" source="-V-hL_aX8nEg9ctuCyiI-4" target="zJHnWX_HGWJEgs-mzoQP-6" edge="1">
          <mxGeometry relative="1" as="geometry">
            <Array as="points">
              <mxPoint x="700" y="1890" />
              <mxPoint x="330" y="1890" />
              <mxPoint x="330" y="730" />
            </Array>
          </mxGeometry>
        </mxCell>
        <mxCell id="61mFYGXQ4aqwpO8kk8qC-1" value="" style="rounded=0;whiteSpace=wrap;" parent="1" vertex="1">
          <mxGeometry x="390" y="2270" width="1200" height="60" as="geometry" />
        </mxCell>
        <mxCell id="61mFYGXQ4aqwpO8kk8qC-2" value="ManagerID" style="rounded=0;whiteSpace=wrap;fontStyle=4" parent="1" vertex="1">
          <mxGeometry x="390" y="2270" width="120" height="60" as="geometry" />
        </mxCell>
        <mxCell id="61mFYGXQ4aqwpO8kk8qC-3" value="UserID" style="rounded=0;whiteSpace=wrap;" parent="1" vertex="1">
          <mxGeometry x="510" y="2270" width="120" height="60" as="geometry" />
        </mxCell>
        <mxCell id="61mFYGXQ4aqwpO8kk8qC-4" value="Manager " style="text;align=center;verticalAlign=middle;whiteSpace=wrap;rounded=0;" parent="1" vertex="1">
          <mxGeometry x="390" y="2240" width="140" height="30" as="geometry" />
        </mxCell>
        <mxCell id="61mFYGXQ4aqwpO8kk8qC-5" value="" style="rounded=0;whiteSpace=wrap;" parent="1" vertex="1">
          <mxGeometry x="390" y="2770" width="1290" height="60" as="geometry" />
        </mxCell>
        <mxCell id="61mFYGXQ4aqwpO8kk8qC-6" value="DriverID " style="rounded=0;whiteSpace=wrap;fontStyle=4" parent="1" vertex="1">
          <mxGeometry x="390" y="2770" width="120" height="60" as="geometry" />
        </mxCell>
        <mxCell id="61mFYGXQ4aqwpO8kk8qC-7" value="UserID" style="rounded=0;whiteSpace=wrap;" parent="1" vertex="1">
          <mxGeometry x="510" y="2770" width="120" height="60" as="geometry" />
        </mxCell>
        <mxCell id="61mFYGXQ4aqwpO8kk8qC-8" value="Driver " style="text;align=center;verticalAlign=middle;whiteSpace=wrap;rounded=0;" parent="1" vertex="1">
          <mxGeometry x="390" y="2740" width="140" height="30" as="geometry" />
        </mxCell>
        <mxCell id="61mFYGXQ4aqwpO8kk8qC-9" value="LicenseNumber " style="rounded=0;whiteSpace=wrap;" parent="1" vertex="1">
          <mxGeometry x="630" y="2770" width="120" height="60" as="geometry" />
        </mxCell>
        <mxCell id="61mFYGXQ4aqwpO8kk8qC-11" value="" style="endArrow=none;html=1;rounded=0;exitX=0.417;exitY=1;exitDx=0;exitDy=0;exitPerimeter=0;endFill=0;startArrow=classic;startFill=1;" parent="1" source="61mFYGXQ4aqwpO8kk8qC-3" edge="1">
          <mxGeometry width="50" height="50" relative="1" as="geometry">
            <mxPoint x="740" y="2350" as="sourcePoint" />
            <mxPoint x="560" y="2360" as="targetPoint" />
          </mxGeometry>
        </mxCell>
        <mxCell id="61mFYGXQ4aqwpO8kk8qC-12" value="" style="endArrow=none;html=1;rounded=0;" parent="1" edge="1">
          <mxGeometry width="50" height="50" relative="1" as="geometry">
            <mxPoint x="290" y="2360" as="sourcePoint" />
            <mxPoint x="560" y="2360" as="targetPoint" />
          </mxGeometry>
        </mxCell>
        <mxCell id="61mFYGXQ4aqwpO8kk8qC-13" value="" style="endArrow=none;html=1;rounded=0;endFill=0;" parent="1" edge="1">
          <mxGeometry width="50" height="50" relative="1" as="geometry">
            <mxPoint x="290" y="2360" as="sourcePoint" />
            <mxPoint x="290" y="2500" as="targetPoint" />
          </mxGeometry>
        </mxCell>
        <mxCell id="61mFYGXQ4aqwpO8kk8qC-14" value="" style="endArrow=none;html=1;rounded=0;" parent="1" edge="1">
          <mxGeometry width="50" height="50" relative="1" as="geometry">
            <mxPoint x="290" y="2500" as="sourcePoint" />
            <mxPoint x="420" y="2500" as="targetPoint" />
          </mxGeometry>
        </mxCell>
        <mxCell id="61mFYGXQ4aqwpO8kk8qC-15" value="" style="endArrow=none;html=1;rounded=0;entryX=0.25;entryY=1;entryDx=0;entryDy=0;endFill=0;" parent="1" target="LYuZhgR_EoxWv6UKxuFj-2" edge="1">
          <mxGeometry width="50" height="50" relative="1" as="geometry">
            <mxPoint x="420" y="2500" as="sourcePoint" />
            <mxPoint x="330" y="2560" as="targetPoint" />
          </mxGeometry>
        </mxCell>
        <mxCell id="61mFYGXQ4aqwpO8kk8qC-17" value="" style="endArrow=none;html=1;rounded=0;exitX=0.5;exitY=0;exitDx=0;exitDy=0;startArrow=classic;startFill=1;" parent="1" source="61mFYGXQ4aqwpO8kk8qC-7" edge="1">
          <mxGeometry width="50" height="50" relative="1" as="geometry">
            <mxPoint x="570" y="2760" as="sourcePoint" />
            <mxPoint x="570" y="2720" as="targetPoint" />
          </mxGeometry>
        </mxCell>
        <mxCell id="61mFYGXQ4aqwpO8kk8qC-18" value="" style="endArrow=none;html=1;rounded=0;" parent="1" edge="1">
          <mxGeometry width="50" height="50" relative="1" as="geometry">
            <mxPoint x="300" y="2720" as="sourcePoint" />
            <mxPoint x="570" y="2720" as="targetPoint" />
          </mxGeometry>
        </mxCell>
        <mxCell id="61mFYGXQ4aqwpO8kk8qC-19" value="" style="endArrow=none;html=1;rounded=0;" parent="1" edge="1">
          <mxGeometry width="50" height="50" relative="1" as="geometry">
            <mxPoint x="300" y="2720" as="sourcePoint" />
            <mxPoint x="300" y="2560" as="targetPoint" />
          </mxGeometry>
        </mxCell>
        <mxCell id="61mFYGXQ4aqwpO8kk8qC-20" value="" style="endArrow=none;html=1;rounded=0;" parent="1" edge="1">
          <mxGeometry width="50" height="50" relative="1" as="geometry">
            <mxPoint x="300" y="2560" as="sourcePoint" />
            <mxPoint x="440" y="2560" as="targetPoint" />
          </mxGeometry>
        </mxCell>
        <mxCell id="61mFYGXQ4aqwpO8kk8qC-21" value="" style="endArrow=none;html=1;rounded=0;endFill=0;" parent="1" edge="1">
          <mxGeometry width="50" height="50" relative="1" as="geometry">
            <mxPoint x="440" y="2560" as="sourcePoint" />
            <mxPoint x="440" y="2460" as="targetPoint" />
          </mxGeometry>
        </mxCell>
        <mxCell id="deXC7BnQ1RghemhuzCMD-2" value="UserID" style="rounded=0;whiteSpace=wrap;strokeColor=default;fillColor=default;" parent="1" vertex="1">
          <mxGeometry x="1470" y="1210" width="120" height="60" as="geometry" />
        </mxCell>
        <mxCell id="deXC7BnQ1RghemhuzCMD-5" value="" style="endArrow=none;html=1;rounded=0;endFill=0;" parent="1" edge="1">
          <mxGeometry width="50" height="50" relative="1" as="geometry">
            <mxPoint x="460" y="2470" as="sourcePoint" />
            <mxPoint x="1690" y="1240" as="targetPoint" />
            <Array as="points">
              <mxPoint x="460" y="2460" />
              <mxPoint x="460" y="2520" />
              <mxPoint x="930" y="2520" />
              <mxPoint x="1400" y="2520" />
              <mxPoint x="1470" y="2520" />
              <mxPoint x="1570" y="2520" />
              <mxPoint x="1690" y="2520" />
            </Array>
          </mxGeometry>
        </mxCell>
        <mxCell id="deXC7BnQ1RghemhuzCMD-6" value="UserID" style="rounded=0;whiteSpace=wrap;" parent="1" vertex="1">
          <mxGeometry x="1361" y="700" width="120" height="60" as="geometry" />
        </mxCell>
        <mxCell id="nrHz2nSnvvdv9US8tgjx-1" style="edgeStyle=orthogonalEdgeStyle;rounded=0;orthogonalLoop=1;jettySize=auto;html=1;exitX=0.5;exitY=1;exitDx=0;exitDy=0;endArrow=classic;endFill=1;startArrow=none;startFill=0;" parent="1" source="kXorW0ai4-YD0W7__TPv-4" edge="1">
          <mxGeometry relative="1" as="geometry">
            <mxPoint x="1190" y="760" as="targetPoint" />
            <Array as="points">
              <mxPoint x="460" y="1460" />
              <mxPoint x="280" y="1460" />
              <mxPoint x="280" y="790" />
              <mxPoint x="1190" y="790" />
              <mxPoint x="1190" y="760" />
            </Array>
            <mxPoint x="870" y="1460" as="sourcePoint" />
          </mxGeometry>
        </mxCell>
        <mxCell id="nrHz2nSnvvdv9US8tgjx-2" style="edgeStyle=orthogonalEdgeStyle;rounded=0;orthogonalLoop=1;jettySize=auto;html=1;exitX=0.5;exitY=1;exitDx=0;exitDy=0;endArrow=classic;endFill=1;startArrow=none;startFill=0;entryX=0.5;entryY=1;entryDx=0;entryDy=0;" parent="1" target="kXorW0ai4-YD0W7__TPv-2" edge="1">
          <mxGeometry relative="1" as="geometry">
            <mxPoint x="1300" y="770" as="targetPoint" />
            <Array as="points">
              <mxPoint x="490" y="1420" />
              <mxPoint x="490" y="1460" />
              <mxPoint x="350" y="1460" />
              <mxPoint x="350" y="810" />
              <mxPoint x="1300" y="810" />
              <mxPoint x="1300" y="770" />
              <mxPoint x="1301" y="770" />
            </Array>
            <mxPoint x="529.91" y="1420" as="sourcePoint" />
          </mxGeometry>
        </mxCell>
        <mxCell id="nrHz2nSnvvdv9US8tgjx-3" value="FirstName" style="rounded=0;whiteSpace=wrap;" parent="1" vertex="1">
          <mxGeometry x="620" y="2610" width="120" height="60" as="geometry" />
        </mxCell>
        <mxCell id="nrHz2nSnvvdv9US8tgjx-4" value="LastName" style="rounded=0;whiteSpace=wrap;" parent="1" vertex="1">
          <mxGeometry x="740" y="2610" width="120" height="60" as="geometry" />
        </mxCell>
        <mxCell id="nrHz2nSnvvdv9US8tgjx-5" value="Email" style="rounded=0;whiteSpace=wrap;" parent="1" vertex="1">
          <mxGeometry x="860" y="2610" width="120" height="60" as="geometry" />
        </mxCell>
        <mxCell id="nrHz2nSnvvdv9US8tgjx-6" value="Phone" style="rounded=0;whiteSpace=wrap;" parent="1" vertex="1">
          <mxGeometry x="1460" y="2610" width="120" height="60" as="geometry" />
        </mxCell>
        <mxCell id="nrHz2nSnvvdv9US8tgjx-7" value="FirstName" style="rounded=0;whiteSpace=wrap;" parent="1" vertex="1">
          <mxGeometry x="740" y="2770" width="120" height="60" as="geometry" />
        </mxCell>
        <mxCell id="nrHz2nSnvvdv9US8tgjx-8" value="LastName" style="rounded=0;whiteSpace=wrap;" parent="1" vertex="1">
          <mxGeometry x="860" y="2770" width="120" height="60" as="geometry" />
        </mxCell>
        <mxCell id="nrHz2nSnvvdv9US8tgjx-9" value="Email" style="rounded=0;whiteSpace=wrap;" parent="1" vertex="1">
          <mxGeometry x="965" y="2770" width="120" height="60" as="geometry" />
        </mxCell>
        <mxCell id="nrHz2nSnvvdv9US8tgjx-10" value="Phone" style="rounded=0;whiteSpace=wrap;" parent="1" vertex="1">
          <mxGeometry x="1565" y="2770" width="120" height="60" as="geometry" />
        </mxCell>
        <mxCell id="nrHz2nSnvvdv9US8tgjx-11" value="FirstName" style="rounded=0;whiteSpace=wrap;" parent="1" vertex="1">
          <mxGeometry x="630" y="2270" width="120" height="60" as="geometry" />
        </mxCell>
        <mxCell id="nrHz2nSnvvdv9US8tgjx-12" value="LastName" style="rounded=0;whiteSpace=wrap;" parent="1" vertex="1">
          <mxGeometry x="750" y="2270" width="120" height="60" as="geometry" />
        </mxCell>
        <mxCell id="nrHz2nSnvvdv9US8tgjx-13" value="Email" style="rounded=0;whiteSpace=wrap;" parent="1" vertex="1">
          <mxGeometry x="870" y="2270" width="120" height="60" as="geometry" />
        </mxCell>
        <mxCell id="nrHz2nSnvvdv9US8tgjx-14" value="Phone" style="rounded=0;whiteSpace=wrap;" parent="1" vertex="1">
          <mxGeometry x="990" y="2270" width="120" height="60" as="geometry" />
        </mxCell>
        <mxCell id="LId8riZQJVLqBGcaRWk7-1" value="Address" style="rounded=0;whiteSpace=wrap;" vertex="1" parent="1">
          <mxGeometry x="1110" y="2270" width="120" height="60" as="geometry" />
        </mxCell>
        <mxCell id="LId8riZQJVLqBGcaRWk7-2" value="City" style="rounded=0;whiteSpace=wrap;" vertex="1" parent="1">
          <mxGeometry x="1230" y="2270" width="120" height="60" as="geometry" />
        </mxCell>
        <mxCell id="LId8riZQJVLqBGcaRWk7-3" value="State" style="rounded=0;whiteSpace=wrap;strokeColor=default;fillColor=default;" vertex="1" parent="1">
          <mxGeometry x="1350" y="2270" width="120" height="60" as="geometry" />
        </mxCell>
        <mxCell id="LId8riZQJVLqBGcaRWk7-4" value="ZipCode" style="rounded=0;whiteSpace=wrap;strokeColor=default;fillColor=default;" vertex="1" parent="1">
          <mxGeometry x="1470" y="2270" width="120" height="60" as="geometry" />
        </mxCell>
        <mxCell id="LId8riZQJVLqBGcaRWk7-5" value="" style="endArrow=classic;html=1;rounded=0;entryX=1;entryY=0.5;entryDx=0;entryDy=0;" edge="1" parent="1" target="deXC7BnQ1RghemhuzCMD-2">
          <mxGeometry width="50" height="50" relative="1" as="geometry">
            <mxPoint x="1690" y="1240" as="sourcePoint" />
            <mxPoint x="1500" y="1410" as="targetPoint" />
          </mxGeometry>
        </mxCell>
        <mxCell id="LId8riZQJVLqBGcaRWk7-6" value="Address" style="rounded=0;whiteSpace=wrap;" vertex="1" parent="1">
          <mxGeometry x="980" y="2610" width="120" height="60" as="geometry" />
        </mxCell>
        <mxCell id="LId8riZQJVLqBGcaRWk7-7" value="City" style="rounded=0;whiteSpace=wrap;" vertex="1" parent="1">
          <mxGeometry x="1100" y="2610" width="120" height="60" as="geometry" />
        </mxCell>
        <mxCell id="LId8riZQJVLqBGcaRWk7-8" value="State" style="rounded=0;whiteSpace=wrap;strokeColor=default;fillColor=default;" vertex="1" parent="1">
          <mxGeometry x="1220" y="2610" width="120" height="60" as="geometry" />
        </mxCell>
        <mxCell id="LId8riZQJVLqBGcaRWk7-9" value="ZipCode" style="rounded=0;whiteSpace=wrap;strokeColor=default;fillColor=default;" vertex="1" parent="1">
          <mxGeometry x="1340" y="2610" width="120" height="60" as="geometry" />
        </mxCell>
        <mxCell id="LId8riZQJVLqBGcaRWk7-10" value="Address" style="rounded=0;whiteSpace=wrap;" vertex="1" parent="1">
          <mxGeometry x="1085" y="2770" width="120" height="60" as="geometry" />
        </mxCell>
        <mxCell id="LId8riZQJVLqBGcaRWk7-11" value="City" style="rounded=0;whiteSpace=wrap;" vertex="1" parent="1">
          <mxGeometry x="1205" y="2770" width="120" height="60" as="geometry" />
        </mxCell>
        <mxCell id="LId8riZQJVLqBGcaRWk7-12" value="State" style="rounded=0;whiteSpace=wrap;strokeColor=default;fillColor=default;" vertex="1" parent="1">
          <mxGeometry x="1325" y="2770" width="120" height="60" as="geometry" />
        </mxCell>
        <mxCell id="LId8riZQJVLqBGcaRWk7-13" value="ZipCode" style="rounded=0;whiteSpace=wrap;strokeColor=default;fillColor=default;" vertex="1" parent="1">
          <mxGeometry x="1445" y="2770" width="120" height="60" as="geometry" />
        </mxCell>
      </root>
    </mxGraphModel>
  </diagram>
</mxfile>
